<mxfile host="app.diagrams.net" modified="2020-10-13T07:18:33.442Z" agent="5.0 (Windows NT 10.0; Win64; x64) AppleWebKit/537.36 (KHTML, like Gecko) Chrome/85.0.4183.121 Safari/537.36" etag="aMtUg0CDK4MVzGZ3jOVm" version="13.7.9" type="github" pages="6">
  <diagram id="I3KZT-gH1jHysMl6zNqr" name="用例图">
    <mxGraphModel dx="899" dy="559" grid="1" gridSize="10" guides="1" tooltips="1" connect="1" arrows="1" fold="1" page="1" pageScale="1" pageWidth="827" pageHeight="1169" math="0" shadow="0">
      <root>
        <mxCell id="0" />
        <mxCell id="1" parent="0" />
        <mxCell id="vuJ6yxuEo0MSaDhtRkO5-39" style="edgeStyle=orthogonalEdgeStyle;rounded=0;orthogonalLoop=1;jettySize=auto;html=1;exitX=1;exitY=1;exitDx=0;exitDy=0;dashed=1;startArrow=none;startFill=0;endArrow=classic;endFill=1;" parent="1" source="Urkiq6_dJbfK8fvMxKuh-2" target="vuJ6yxuEo0MSaDhtRkO5-33" edge="1">
          <mxGeometry relative="1" as="geometry" />
        </mxCell>
        <mxCell id="vuJ6yxuEo0MSaDhtRkO5-40" value="&amp;lt;&amp;lt;include&amp;gt;&amp;gt;" style="edgeLabel;html=1;align=center;verticalAlign=middle;resizable=0;points=[];" parent="vuJ6yxuEo0MSaDhtRkO5-39" vertex="1" connectable="0">
          <mxGeometry x="-0.2264" y="1" relative="1" as="geometry">
            <mxPoint as="offset" />
          </mxGeometry>
        </mxCell>
        <object label="维护博客" fasdf="fsfgsfdgsadg" id="Urkiq6_dJbfK8fvMxKuh-2">
          <mxCell style="ellipse;whiteSpace=wrap;html=1;" parent="1" vertex="1">
            <mxGeometry x="350" y="40" width="80" height="50" as="geometry" />
          </mxCell>
        </object>
        <mxCell id="vuJ6yxuEo0MSaDhtRkO5-7" value="" style="edgeStyle=orthogonalEdgeStyle;rounded=0;orthogonalLoop=1;jettySize=auto;html=1;endArrow=none;endFill=0;startArrow=block;startFill=0;" parent="1" source="vuJ6yxuEo0MSaDhtRkO5-2" target="vuJ6yxuEo0MSaDhtRkO5-6" edge="1">
          <mxGeometry relative="1" as="geometry" />
        </mxCell>
        <mxCell id="vuJ6yxuEo0MSaDhtRkO5-8" style="edgeStyle=orthogonalEdgeStyle;rounded=0;orthogonalLoop=1;jettySize=auto;html=1;" parent="1" source="vuJ6yxuEo0MSaDhtRkO5-2" target="Urkiq6_dJbfK8fvMxKuh-2" edge="1">
          <mxGeometry relative="1" as="geometry" />
        </mxCell>
        <mxCell id="vuJ6yxuEo0MSaDhtRkO5-13" style="edgeStyle=orthogonalEdgeStyle;rounded=0;orthogonalLoop=1;jettySize=auto;html=1;entryX=0;entryY=0.5;entryDx=0;entryDy=0;" parent="1" source="vuJ6yxuEo0MSaDhtRkO5-2" target="vuJ6yxuEo0MSaDhtRkO5-9" edge="1">
          <mxGeometry relative="1" as="geometry" />
        </mxCell>
        <mxCell id="vuJ6yxuEo0MSaDhtRkO5-14" style="edgeStyle=orthogonalEdgeStyle;rounded=0;orthogonalLoop=1;jettySize=auto;html=1;entryX=0;entryY=0.5;entryDx=0;entryDy=0;" parent="1" source="vuJ6yxuEo0MSaDhtRkO5-2" target="vuJ6yxuEo0MSaDhtRkO5-10" edge="1">
          <mxGeometry relative="1" as="geometry" />
        </mxCell>
        <mxCell id="vuJ6yxuEo0MSaDhtRkO5-15" style="edgeStyle=orthogonalEdgeStyle;rounded=0;orthogonalLoop=1;jettySize=auto;html=1;entryX=0;entryY=0.5;entryDx=0;entryDy=0;" parent="1" source="vuJ6yxuEo0MSaDhtRkO5-2" target="vuJ6yxuEo0MSaDhtRkO5-11" edge="1">
          <mxGeometry relative="1" as="geometry" />
        </mxCell>
        <mxCell id="vuJ6yxuEo0MSaDhtRkO5-34" style="edgeStyle=orthogonalEdgeStyle;rounded=0;orthogonalLoop=1;jettySize=auto;html=1;startArrow=none;startFill=0;endArrow=classic;endFill=1;" parent="1" source="vuJ6yxuEo0MSaDhtRkO5-2" target="vuJ6yxuEo0MSaDhtRkO5-33" edge="1">
          <mxGeometry relative="1" as="geometry" />
        </mxCell>
        <mxCell id="vuJ6yxuEo0MSaDhtRkO5-2" value="已注册用户" style="shape=umlActor;verticalLabelPosition=bottom;verticalAlign=top;html=1;" parent="1" vertex="1">
          <mxGeometry x="100" y="90" width="30" height="60" as="geometry" />
        </mxCell>
        <mxCell id="vuJ6yxuEo0MSaDhtRkO5-16" style="edgeStyle=orthogonalEdgeStyle;rounded=0;orthogonalLoop=1;jettySize=auto;html=1;" parent="1" source="vuJ6yxuEo0MSaDhtRkO5-6" target="vuJ6yxuEo0MSaDhtRkO5-12" edge="1">
          <mxGeometry relative="1" as="geometry" />
        </mxCell>
        <mxCell id="vuJ6yxuEo0MSaDhtRkO5-6" value="导师" style="shape=umlActor;verticalLabelPosition=bottom;verticalAlign=top;html=1;" parent="1" vertex="1">
          <mxGeometry x="100" y="395" width="30" height="60" as="geometry" />
        </mxCell>
        <mxCell id="vuJ6yxuEo0MSaDhtRkO5-41" style="edgeStyle=orthogonalEdgeStyle;rounded=0;orthogonalLoop=1;jettySize=auto;html=1;dashed=1;startArrow=none;startFill=0;endArrow=classic;endFill=1;" parent="1" source="vuJ6yxuEo0MSaDhtRkO5-9" target="vuJ6yxuEo0MSaDhtRkO5-33" edge="1">
          <mxGeometry relative="1" as="geometry" />
        </mxCell>
        <mxCell id="vuJ6yxuEo0MSaDhtRkO5-42" value="&amp;lt;&amp;lt;include&amp;gt;&amp;gt;" style="edgeLabel;html=1;align=center;verticalAlign=middle;resizable=0;points=[];" parent="vuJ6yxuEo0MSaDhtRkO5-41" vertex="1" connectable="0">
          <mxGeometry x="-0.0519" y="-3" relative="1" as="geometry">
            <mxPoint as="offset" />
          </mxGeometry>
        </mxCell>
        <UserObject label="参与论坛" link="data:page/id,ddqXl0nQFtod3dDMD2mm" id="vuJ6yxuEo0MSaDhtRkO5-9">
          <mxCell style="ellipse;whiteSpace=wrap;html=1;" parent="1" vertex="1">
            <mxGeometry x="350" y="130" width="80" height="50" as="geometry" />
          </mxCell>
        </UserObject>
        <mxCell id="vuJ6yxuEo0MSaDhtRkO5-43" style="edgeStyle=orthogonalEdgeStyle;rounded=0;orthogonalLoop=1;jettySize=auto;html=1;dashed=1;startArrow=none;startFill=0;endArrow=classic;endFill=1;" parent="1" source="vuJ6yxuEo0MSaDhtRkO5-10" target="vuJ6yxuEo0MSaDhtRkO5-33" edge="1">
          <mxGeometry relative="1" as="geometry" />
        </mxCell>
        <mxCell id="vuJ6yxuEo0MSaDhtRkO5-44" value="&amp;lt;&amp;lt;include&amp;gt;&amp;gt;" style="edgeLabel;html=1;align=center;verticalAlign=middle;resizable=0;points=[];" parent="vuJ6yxuEo0MSaDhtRkO5-43" vertex="1" connectable="0">
          <mxGeometry x="-0.3556" y="4" relative="1" as="geometry">
            <mxPoint as="offset" />
          </mxGeometry>
        </mxCell>
        <mxCell id="vuJ6yxuEo0MSaDhtRkO5-10" value="维护书籍信息" style="ellipse;whiteSpace=wrap;html=1;" parent="1" vertex="1">
          <mxGeometry x="350" y="220" width="80" height="50" as="geometry" />
        </mxCell>
        <mxCell id="vuJ6yxuEo0MSaDhtRkO5-45" style="edgeStyle=orthogonalEdgeStyle;rounded=0;orthogonalLoop=1;jettySize=auto;html=1;entryX=0;entryY=1;entryDx=0;entryDy=0;dashed=1;startArrow=none;startFill=0;endArrow=classic;endFill=1;" parent="1" source="vuJ6yxuEo0MSaDhtRkO5-11" target="vuJ6yxuEo0MSaDhtRkO5-33" edge="1">
          <mxGeometry relative="1" as="geometry" />
        </mxCell>
        <mxCell id="vuJ6yxuEo0MSaDhtRkO5-46" value="&amp;lt;&amp;lt;include&amp;gt;&amp;gt;" style="edgeLabel;html=1;align=center;verticalAlign=middle;resizable=0;points=[];" parent="vuJ6yxuEo0MSaDhtRkO5-45" vertex="1" connectable="0">
          <mxGeometry x="-0.176" y="22" relative="1" as="geometry">
            <mxPoint x="22" y="-22" as="offset" />
          </mxGeometry>
        </mxCell>
        <mxCell id="vuJ6yxuEo0MSaDhtRkO5-11" value="维护书评" style="ellipse;whiteSpace=wrap;html=1;" parent="1" vertex="1">
          <mxGeometry x="350" y="310" width="80" height="50" as="geometry" />
        </mxCell>
        <mxCell id="vuJ6yxuEo0MSaDhtRkO5-37" style="edgeStyle=orthogonalEdgeStyle;rounded=0;orthogonalLoop=1;jettySize=auto;html=1;startArrow=none;startFill=0;endArrow=classic;endFill=1;exitX=1;exitY=0;exitDx=0;exitDy=0;dashed=1;" parent="1" source="vuJ6yxuEo0MSaDhtRkO5-12" target="vuJ6yxuEo0MSaDhtRkO5-33" edge="1">
          <mxGeometry relative="1" as="geometry" />
        </mxCell>
        <mxCell id="vuJ6yxuEo0MSaDhtRkO5-38" value="&amp;lt;&amp;lt;include&amp;gt;&amp;gt;" style="edgeLabel;html=1;align=center;verticalAlign=middle;resizable=0;points=[];" parent="vuJ6yxuEo0MSaDhtRkO5-37" vertex="1" connectable="0">
          <mxGeometry x="0.2904" y="-1" relative="1" as="geometry">
            <mxPoint as="offset" />
          </mxGeometry>
        </mxCell>
        <mxCell id="vuJ6yxuEo0MSaDhtRkO5-12" value="维护圈子" style="ellipse;whiteSpace=wrap;html=1;" parent="1" vertex="1">
          <mxGeometry x="350" y="400" width="80" height="50" as="geometry" />
        </mxCell>
        <mxCell id="vuJ6yxuEo0MSaDhtRkO5-28" style="edgeStyle=orthogonalEdgeStyle;rounded=0;orthogonalLoop=1;jettySize=auto;html=1;entryX=1;entryY=0.5;entryDx=0;entryDy=0;startArrow=none;startFill=0;endArrow=classic;endFill=1;" parent="1" source="vuJ6yxuEo0MSaDhtRkO5-17" target="vuJ6yxuEo0MSaDhtRkO5-21" edge="1">
          <mxGeometry relative="1" as="geometry" />
        </mxCell>
        <mxCell id="vuJ6yxuEo0MSaDhtRkO5-29" style="edgeStyle=orthogonalEdgeStyle;rounded=0;orthogonalLoop=1;jettySize=auto;html=1;entryX=1;entryY=0.5;entryDx=0;entryDy=0;startArrow=none;startFill=0;endArrow=classic;endFill=1;" parent="1" source="vuJ6yxuEo0MSaDhtRkO5-17" target="vuJ6yxuEo0MSaDhtRkO5-20" edge="1">
          <mxGeometry relative="1" as="geometry" />
        </mxCell>
        <mxCell id="vuJ6yxuEo0MSaDhtRkO5-30" style="edgeStyle=orthogonalEdgeStyle;rounded=0;orthogonalLoop=1;jettySize=auto;html=1;entryX=1;entryY=0.5;entryDx=0;entryDy=0;startArrow=none;startFill=0;endArrow=classic;endFill=1;" parent="1" source="vuJ6yxuEo0MSaDhtRkO5-17" target="vuJ6yxuEo0MSaDhtRkO5-19" edge="1">
          <mxGeometry relative="1" as="geometry" />
        </mxCell>
        <mxCell id="vuJ6yxuEo0MSaDhtRkO5-31" style="edgeStyle=orthogonalEdgeStyle;rounded=0;orthogonalLoop=1;jettySize=auto;html=1;entryX=1;entryY=0.5;entryDx=0;entryDy=0;startArrow=none;startFill=0;endArrow=classic;endFill=1;" parent="1" source="vuJ6yxuEo0MSaDhtRkO5-17" target="vuJ6yxuEo0MSaDhtRkO5-18" edge="1">
          <mxGeometry relative="1" as="geometry" />
        </mxCell>
        <mxCell id="vuJ6yxuEo0MSaDhtRkO5-32" style="edgeStyle=orthogonalEdgeStyle;rounded=0;orthogonalLoop=1;jettySize=auto;html=1;entryX=1;entryY=0.5;entryDx=0;entryDy=0;startArrow=none;startFill=0;endArrow=classic;endFill=1;" parent="1" source="vuJ6yxuEo0MSaDhtRkO5-17" target="vuJ6yxuEo0MSaDhtRkO5-22" edge="1">
          <mxGeometry relative="1" as="geometry" />
        </mxCell>
        <mxCell id="vuJ6yxuEo0MSaDhtRkO5-36" style="edgeStyle=orthogonalEdgeStyle;rounded=0;orthogonalLoop=1;jettySize=auto;html=1;startArrow=none;startFill=0;endArrow=classic;endFill=1;" parent="1" source="vuJ6yxuEo0MSaDhtRkO5-17" target="vuJ6yxuEo0MSaDhtRkO5-33" edge="1">
          <mxGeometry relative="1" as="geometry" />
        </mxCell>
        <mxCell id="vuJ6yxuEo0MSaDhtRkO5-17" value="管理员" style="shape=umlActor;verticalLabelPosition=bottom;verticalAlign=top;html=1;" parent="1" vertex="1">
          <mxGeometry x="860" y="180" width="30" height="60" as="geometry" />
        </mxCell>
        <mxCell id="vuJ6yxuEo0MSaDhtRkO5-50" style="edgeStyle=orthogonalEdgeStyle;rounded=0;orthogonalLoop=1;jettySize=auto;html=1;entryX=1;entryY=1;entryDx=0;entryDy=0;dashed=1;startArrow=none;startFill=0;endArrow=classic;endFill=1;" parent="1" source="vuJ6yxuEo0MSaDhtRkO5-18" target="vuJ6yxuEo0MSaDhtRkO5-33" edge="1">
          <mxGeometry relative="1" as="geometry" />
        </mxCell>
        <mxCell id="vuJ6yxuEo0MSaDhtRkO5-57" value="&amp;lt;&amp;lt;include&amp;gt;&amp;gt;" style="edgeLabel;html=1;align=center;verticalAlign=middle;resizable=0;points=[];" parent="vuJ6yxuEo0MSaDhtRkO5-50" vertex="1" connectable="0">
          <mxGeometry x="-0.5347" y="2" relative="1" as="geometry">
            <mxPoint as="offset" />
          </mxGeometry>
        </mxCell>
        <mxCell id="vuJ6yxuEo0MSaDhtRkO5-18" value="管理书评信息" style="ellipse;whiteSpace=wrap;html=1;" parent="1" vertex="1">
          <mxGeometry x="680" y="310" width="80" height="50" as="geometry" />
        </mxCell>
        <mxCell id="vuJ6yxuEo0MSaDhtRkO5-49" style="edgeStyle=orthogonalEdgeStyle;rounded=0;orthogonalLoop=1;jettySize=auto;html=1;entryX=0.95;entryY=0.72;entryDx=0;entryDy=0;entryPerimeter=0;dashed=1;startArrow=none;startFill=0;endArrow=classic;endFill=1;" parent="1" source="vuJ6yxuEo0MSaDhtRkO5-19" target="vuJ6yxuEo0MSaDhtRkO5-33" edge="1">
          <mxGeometry relative="1" as="geometry" />
        </mxCell>
        <mxCell id="vuJ6yxuEo0MSaDhtRkO5-59" value="&amp;lt;&amp;lt;include&amp;gt;&amp;gt;" style="edgeLabel;html=1;align=center;verticalAlign=middle;resizable=0;points=[];" parent="vuJ6yxuEo0MSaDhtRkO5-49" vertex="1" connectable="0">
          <mxGeometry x="0.3684" y="-2" relative="1" as="geometry">
            <mxPoint x="22" as="offset" />
          </mxGeometry>
        </mxCell>
        <mxCell id="vuJ6yxuEo0MSaDhtRkO5-19" value="管理论坛" style="ellipse;whiteSpace=wrap;html=1;" parent="1" vertex="1">
          <mxGeometry x="680" y="220" width="80" height="50" as="geometry" />
        </mxCell>
        <mxCell id="vuJ6yxuEo0MSaDhtRkO5-48" style="edgeStyle=orthogonalEdgeStyle;rounded=0;orthogonalLoop=1;jettySize=auto;html=1;entryX=0.938;entryY=0.24;entryDx=0;entryDy=0;entryPerimeter=0;dashed=1;startArrow=none;startFill=0;endArrow=classic;endFill=1;" parent="1" source="vuJ6yxuEo0MSaDhtRkO5-20" target="vuJ6yxuEo0MSaDhtRkO5-33" edge="1">
          <mxGeometry relative="1" as="geometry" />
        </mxCell>
        <mxCell id="vuJ6yxuEo0MSaDhtRkO5-55" value="&amp;lt;&amp;lt;include&amp;gt;&amp;gt;" style="edgeLabel;html=1;align=center;verticalAlign=middle;resizable=0;points=[];" parent="vuJ6yxuEo0MSaDhtRkO5-48" vertex="1" connectable="0">
          <mxGeometry x="-0.7471" relative="1" as="geometry">
            <mxPoint as="offset" />
          </mxGeometry>
        </mxCell>
        <mxCell id="vuJ6yxuEo0MSaDhtRkO5-20" value="管理博客" style="ellipse;whiteSpace=wrap;html=1;" parent="1" vertex="1">
          <mxGeometry x="680" y="130" width="80" height="50" as="geometry" />
        </mxCell>
        <mxCell id="vuJ6yxuEo0MSaDhtRkO5-47" style="edgeStyle=orthogonalEdgeStyle;rounded=0;orthogonalLoop=1;jettySize=auto;html=1;entryX=1;entryY=0;entryDx=0;entryDy=0;dashed=1;startArrow=none;startFill=0;endArrow=classic;endFill=1;" parent="1" source="vuJ6yxuEo0MSaDhtRkO5-21" target="vuJ6yxuEo0MSaDhtRkO5-33" edge="1">
          <mxGeometry relative="1" as="geometry" />
        </mxCell>
        <mxCell id="vuJ6yxuEo0MSaDhtRkO5-52" value="&amp;lt;&amp;lt;include&amp;gt;&amp;gt;" style="edgeLabel;html=1;align=center;verticalAlign=middle;resizable=0;points=[];" parent="vuJ6yxuEo0MSaDhtRkO5-47" vertex="1" connectable="0">
          <mxGeometry x="-0.8213" y="2" relative="1" as="geometry">
            <mxPoint as="offset" />
          </mxGeometry>
        </mxCell>
        <mxCell id="vuJ6yxuEo0MSaDhtRkO5-21" value="管理用户信息" style="ellipse;whiteSpace=wrap;html=1;" parent="1" vertex="1">
          <mxGeometry x="680" y="40" width="80" height="50" as="geometry" />
        </mxCell>
        <mxCell id="vuJ6yxuEo0MSaDhtRkO5-51" style="edgeStyle=orthogonalEdgeStyle;rounded=0;orthogonalLoop=1;jettySize=auto;html=1;dashed=1;startArrow=none;startFill=0;endArrow=classic;endFill=1;" parent="1" source="vuJ6yxuEo0MSaDhtRkO5-22" edge="1">
          <mxGeometry relative="1" as="geometry">
            <mxPoint x="550" y="230" as="targetPoint" />
          </mxGeometry>
        </mxCell>
        <mxCell id="vuJ6yxuEo0MSaDhtRkO5-58" value="&amp;lt;&amp;lt;include&amp;gt;&amp;gt;" style="edgeLabel;html=1;align=center;verticalAlign=middle;resizable=0;points=[];" parent="vuJ6yxuEo0MSaDhtRkO5-51" vertex="1" connectable="0">
          <mxGeometry x="-0.6077" relative="1" as="geometry">
            <mxPoint as="offset" />
          </mxGeometry>
        </mxCell>
        <mxCell id="vuJ6yxuEo0MSaDhtRkO5-22" value="管理书籍信息" style="ellipse;whiteSpace=wrap;html=1;" parent="1" vertex="1">
          <mxGeometry x="680" y="400" width="80" height="50" as="geometry" />
        </mxCell>
        <mxCell id="vuJ6yxuEo0MSaDhtRkO5-33" value="登录注册" style="ellipse;whiteSpace=wrap;html=1;" parent="1" vertex="1">
          <mxGeometry x="490" y="190" width="80" height="50" as="geometry" />
        </mxCell>
      </root>
    </mxGraphModel>
  </diagram>
  <diagram id="ddqXl0nQFtod3dDMD2mm" name="用例文字">
    <mxGraphModel dx="899" dy="559" grid="1" gridSize="10" guides="1" tooltips="1" connect="1" arrows="1" fold="1" page="1" pageScale="1" pageWidth="827" pageHeight="1169" math="0" shadow="0">
      <root>
        <mxCell id="R9NvmIShY4WSAQd4rQcJ-0" />
        <mxCell id="R9NvmIShY4WSAQd4rQcJ-1" parent="R9NvmIShY4WSAQd4rQcJ-0" />
        <mxCell id="b-Akr65Ob2qr5rtVW4R0-0" value="&lt;div&gt;&lt;span&gt;用例编号：xx&lt;/span&gt;&lt;/div&gt;&lt;div&gt;&lt;span&gt;用例名称：参与论坛&lt;/span&gt;&lt;/div&gt;&lt;div&gt;&lt;span&gt;前置条件：已登录，点击“讨论区”按钮&lt;/span&gt;&lt;/div&gt;&lt;div&gt;&lt;span&gt;后置条件：成功参与论坛&lt;/span&gt;&lt;/div&gt;&lt;div&gt;&lt;span&gt;活动步骤：1.点击讨论区按钮。&lt;/span&gt;&lt;/div&gt;&lt;div&gt;&lt;span&gt;2.显示已有讨论区&lt;/span&gt;&lt;/div&gt;&lt;div&gt;&lt;span&gt;3.用户点击进入已有的讨论区或新建讨论&lt;/span&gt;&lt;/div&gt;&lt;div&gt;&lt;span&gt;4.进入讨论&lt;/span&gt;&lt;/div&gt;&lt;div&gt;&lt;span&gt;拓展点：无&lt;/span&gt;&lt;/div&gt;&lt;div&gt;&lt;span&gt;异常处理：1.未登录——跳转&lt;/span&gt;&lt;/div&gt;&lt;div&gt;&lt;span&gt;2.系统出错——错误页，记录日志&lt;/span&gt;&lt;/div&gt;" style="text;html=1;align=left;verticalAlign=middle;resizable=0;points=[];autosize=1;" vertex="1" parent="R9NvmIShY4WSAQd4rQcJ-1">
          <mxGeometry x="90" y="410" width="230" height="160" as="geometry" />
        </mxCell>
      </root>
    </mxGraphModel>
  </diagram>
  <diagram id="PIxRhNnzzL-6vCuk4qo_" name="参与论坛类图">
    <mxGraphModel dx="899" dy="559" grid="1" gridSize="10" guides="1" tooltips="1" connect="1" arrows="1" fold="1" page="1" pageScale="1" pageWidth="827" pageHeight="1169" math="0" shadow="0">
      <root>
        <mxCell id="ge1Y5yiAR5JoLluocOsc-0" />
        <mxCell id="ge1Y5yiAR5JoLluocOsc-1" parent="ge1Y5yiAR5JoLluocOsc-0" />
        <mxCell id="fnrXz1J3qbSqWxqYZVMJ-4" value="User" style="swimlane;fontStyle=1;align=center;verticalAlign=top;childLayout=stackLayout;horizontal=1;startSize=26;horizontalStack=0;resizeParent=1;resizeParentMax=0;resizeLast=0;collapsible=1;marginBottom=0;" vertex="1" parent="ge1Y5yiAR5JoLluocOsc-1">
          <mxGeometry x="130" y="80" width="160" height="210" as="geometry">
            <mxRectangle x="280" y="80" width="60" height="26" as="alternateBounds" />
          </mxGeometry>
        </mxCell>
        <mxCell id="fnrXz1J3qbSqWxqYZVMJ-5" value="id:int" style="text;strokeColor=none;fillColor=none;align=left;verticalAlign=top;spacingLeft=4;spacingRight=4;overflow=hidden;rotatable=0;points=[[0,0.5],[1,0.5]];portConstraint=eastwest;" vertex="1" parent="fnrXz1J3qbSqWxqYZVMJ-4">
          <mxGeometry y="26" width="160" height="26" as="geometry" />
        </mxCell>
        <mxCell id="fnrXz1J3qbSqWxqYZVMJ-6" value="" style="line;strokeWidth=1;fillColor=none;align=left;verticalAlign=middle;spacingTop=-1;spacingLeft=3;spacingRight=3;rotatable=0;labelPosition=right;points=[];portConstraint=eastwest;" vertex="1" parent="fnrXz1J3qbSqWxqYZVMJ-4">
          <mxGeometry y="52" width="160" height="8" as="geometry" />
        </mxCell>
        <mxCell id="fnrXz1J3qbSqWxqYZVMJ-7" value="password:string" style="text;strokeColor=none;fillColor=none;align=left;verticalAlign=top;spacingLeft=4;spacingRight=4;overflow=hidden;rotatable=0;points=[[0,0.5],[1,0.5]];portConstraint=eastwest;" vertex="1" parent="fnrXz1J3qbSqWxqYZVMJ-4">
          <mxGeometry y="60" width="160" height="26" as="geometry" />
        </mxCell>
        <mxCell id="fnrXz1J3qbSqWxqYZVMJ-15" value="img" style="rounded=0;whiteSpace=wrap;html=1;" vertex="1" parent="fnrXz1J3qbSqWxqYZVMJ-4">
          <mxGeometry y="86" width="160" height="30" as="geometry" />
        </mxCell>
        <mxCell id="fnrXz1J3qbSqWxqYZVMJ-16" value="login()" style="rounded=0;whiteSpace=wrap;html=1;" vertex="1" parent="fnrXz1J3qbSqWxqYZVMJ-4">
          <mxGeometry y="116" width="160" height="34" as="geometry" />
        </mxCell>
        <mxCell id="sewnEPU8cPqHBaksERaa-2" value="viewComment()" style="rounded=0;whiteSpace=wrap;html=1;shadow=0;glass=0;sketch=0;imageAspect=1;fillOpacity=0;strokeOpacity=100;" vertex="1" parent="fnrXz1J3qbSqWxqYZVMJ-4">
          <mxGeometry y="150" width="160" height="30" as="geometry" />
        </mxCell>
        <mxCell id="Pe0jZCrPs6R8YZe5xFqU-0" value="review()" style="rounded=0;whiteSpace=wrap;html=1;shadow=0;glass=0;sketch=0;imageAspect=1;fillOpacity=0;strokeOpacity=100;" vertex="1" parent="fnrXz1J3qbSqWxqYZVMJ-4">
          <mxGeometry y="180" width="160" height="30" as="geometry" />
        </mxCell>
        <mxCell id="Pe0jZCrPs6R8YZe5xFqU-1" value="Discuz" style="swimlane;fontStyle=1;align=center;verticalAlign=top;childLayout=stackLayout;horizontal=1;startSize=26;horizontalStack=0;resizeParent=1;resizeParentMax=0;resizeLast=0;collapsible=1;marginBottom=0;rounded=0;shadow=0;glass=0;sketch=0;" vertex="1" parent="ge1Y5yiAR5JoLluocOsc-1">
          <mxGeometry x="440" y="80" width="160" height="206" as="geometry" />
        </mxCell>
        <mxCell id="Pe0jZCrPs6R8YZe5xFqU-2" value="id:int" style="text;strokeColor=none;fillColor=none;align=left;verticalAlign=top;spacingLeft=4;spacingRight=4;overflow=hidden;rotatable=0;points=[[0,0.5],[1,0.5]];portConstraint=eastwest;" vertex="1" parent="Pe0jZCrPs6R8YZe5xFqU-1">
          <mxGeometry y="26" width="160" height="26" as="geometry" />
        </mxCell>
        <mxCell id="Pe0jZCrPs6R8YZe5xFqU-3" value="" style="line;strokeWidth=1;fillColor=none;align=left;verticalAlign=middle;spacingTop=-1;spacingLeft=3;spacingRight=3;rotatable=0;labelPosition=right;points=[];portConstraint=eastwest;" vertex="1" parent="Pe0jZCrPs6R8YZe5xFqU-1">
          <mxGeometry y="52" width="160" height="8" as="geometry" />
        </mxCell>
        <mxCell id="Pe0jZCrPs6R8YZe5xFqU-4" value="userId:int" style="text;strokeColor=none;fillColor=none;align=left;verticalAlign=top;spacingLeft=4;spacingRight=4;overflow=hidden;rotatable=0;points=[[0,0.5],[1,0.5]];portConstraint=eastwest;" vertex="1" parent="Pe0jZCrPs6R8YZe5xFqU-1">
          <mxGeometry y="60" width="160" height="26" as="geometry" />
        </mxCell>
        <mxCell id="sewnEPU8cPqHBaksERaa-0" value="content:string" style="rounded=0;whiteSpace=wrap;html=1;shadow=0;glass=0;sketch=0;imageAspect=1;fillOpacity=0;strokeOpacity=100;" vertex="1" parent="Pe0jZCrPs6R8YZe5xFqU-1">
          <mxGeometry y="86" width="160" height="30" as="geometry" />
        </mxCell>
        <mxCell id="Pe0jZCrPs6R8YZe5xFqU-5" value="time:datetime" style="rounded=0;whiteSpace=wrap;html=1;shadow=0;glass=0;sketch=0;imageAspect=1;fillOpacity=0;strokeOpacity=100;" vertex="1" parent="Pe0jZCrPs6R8YZe5xFqU-1">
          <mxGeometry y="116" width="160" height="30" as="geometry" />
        </mxCell>
        <mxCell id="Pe0jZCrPs6R8YZe5xFqU-8" value="parent:int" style="rounded=0;whiteSpace=wrap;html=1;shadow=0;glass=0;sketch=0;imageAspect=1;fillOpacity=0;strokeOpacity=100;" vertex="1" parent="Pe0jZCrPs6R8YZe5xFqU-1">
          <mxGeometry y="146" width="160" height="30" as="geometry" />
        </mxCell>
        <mxCell id="Pe0jZCrPs6R8YZe5xFqU-7" value="type:bit" style="rounded=0;whiteSpace=wrap;html=1;shadow=0;glass=0;sketch=0;imageAspect=1;fillOpacity=0;strokeOpacity=100;" vertex="1" parent="Pe0jZCrPs6R8YZe5xFqU-1">
          <mxGeometry y="176" width="160" height="30" as="geometry" />
        </mxCell>
        <mxCell id="Pe0jZCrPs6R8YZe5xFqU-9" value="Relation" style="endArrow=open;html=1;endSize=12;startArrow=diamondThin;startSize=14;startFill=0;edgeStyle=orthogonalEdgeStyle;exitX=1;exitY=0.5;exitDx=0;exitDy=0;entryX=0;entryY=0.5;entryDx=0;entryDy=0;" edge="1" parent="ge1Y5yiAR5JoLluocOsc-1" source="fnrXz1J3qbSqWxqYZVMJ-15" target="Pe0jZCrPs6R8YZe5xFqU-1">
          <mxGeometry relative="1" as="geometry">
            <mxPoint x="260" y="180" as="sourcePoint" />
            <mxPoint x="420" y="180" as="targetPoint" />
          </mxGeometry>
        </mxCell>
        <mxCell id="Pe0jZCrPs6R8YZe5xFqU-10" value="0..n" style="edgeLabel;resizable=0;html=1;align=left;verticalAlign=top;" connectable="0" vertex="1" parent="Pe0jZCrPs6R8YZe5xFqU-9">
          <mxGeometry x="-1" relative="1" as="geometry">
            <mxPoint x="124" y="-21" as="offset" />
          </mxGeometry>
        </mxCell>
        <mxCell id="Pe0jZCrPs6R8YZe5xFqU-11" value="1" style="edgeLabel;resizable=0;html=1;align=right;verticalAlign=top;" connectable="0" vertex="1" parent="Pe0jZCrPs6R8YZe5xFqU-9">
          <mxGeometry x="1" relative="1" as="geometry">
            <mxPoint x="-130" y="-23" as="offset" />
          </mxGeometry>
        </mxCell>
        <mxCell id="4LaohEWLadUSyOqzvYMP-0" value="主题和回复同一实体" style="text;html=1;align=center;verticalAlign=middle;resizable=0;points=[];autosize=1;" vertex="1" parent="ge1Y5yiAR5JoLluocOsc-1">
          <mxGeometry x="600" y="210" width="120" height="20" as="geometry" />
        </mxCell>
      </root>
    </mxGraphModel>
  </diagram>
  <diagram id="ZvGkAk_WLxDwGIhJIHXp" name="参与论坛对象图">
    <mxGraphModel dx="899" dy="559" grid="1" gridSize="10" guides="1" tooltips="1" connect="1" arrows="1" fold="1" page="1" pageScale="1" pageWidth="827" pageHeight="1169" math="0" shadow="0">
      <root>
        <mxCell id="z-CVKgsDqFBqJZk--zXT-0" />
        <mxCell id="z-CVKgsDqFBqJZk--zXT-1" parent="z-CVKgsDqFBqJZk--zXT-0" />
        <mxCell id="840c03-qP91tFdaPRe9u-0" style="edgeStyle=orthogonalEdgeStyle;rounded=0;orthogonalLoop=1;jettySize=auto;html=1;endArrow=none;endFill=0;" edge="1" parent="z-CVKgsDqFBqJZk--zXT-1" source="L2OrqItvQ_Rxt3m2jq36-0" target="L2OrqItvQ_Rxt3m2jq36-1">
          <mxGeometry relative="1" as="geometry" />
        </mxCell>
        <mxCell id="L2OrqItvQ_Rxt3m2jq36-0" value="user" style="ellipse;shape=umlEntity;whiteSpace=wrap;html=1;rounded=0;shadow=0;glass=0;sketch=0;" vertex="1" parent="z-CVKgsDqFBqJZk--zXT-1">
          <mxGeometry x="220" y="160" width="80" height="80" as="geometry" />
        </mxCell>
        <mxCell id="L2OrqItvQ_Rxt3m2jq36-1" value="Discuz" style="ellipse;shape=umlEntity;whiteSpace=wrap;html=1;rounded=0;shadow=0;glass=0;sketch=0;" vertex="1" parent="z-CVKgsDqFBqJZk--zXT-1">
          <mxGeometry x="510" y="160" width="80" height="80" as="geometry" />
        </mxCell>
        <mxCell id="wMT7Jo9sGNu5rfx4kUKY-0" value="论坛控制类" style="ellipse;shape=umlControl;whiteSpace=wrap;html=1;" vertex="1" parent="z-CVKgsDqFBqJZk--zXT-1">
          <mxGeometry x="370" y="300" width="70" height="80" as="geometry" />
        </mxCell>
      </root>
    </mxGraphModel>
  </diagram>
  <diagram id="Dmh0phmU22sRIasIIxRA" name="包图">
    <mxGraphModel dx="899" dy="559" grid="1" gridSize="10" guides="1" tooltips="1" connect="1" arrows="1" fold="1" page="1" pageScale="1" pageWidth="827" pageHeight="1169" math="0" shadow="0">
      <root>
        <mxCell id="f_59wvBuFlrTC7KGXI5E-0" />
        <mxCell id="f_59wvBuFlrTC7KGXI5E-1" parent="f_59wvBuFlrTC7KGXI5E-0" />
        <mxCell id="f_59wvBuFlrTC7KGXI5E-2" value="个人主页模块" style="shape=folder;fontStyle=1;spacingTop=10;tabWidth=40;tabHeight=14;tabPosition=left;html=1;" vertex="1" parent="f_59wvBuFlrTC7KGXI5E-1">
          <mxGeometry x="460" y="60" width="140" height="100" as="geometry" />
        </mxCell>
        <mxCell id="f_59wvBuFlrTC7KGXI5E-3" value="圈子管理模块" style="shape=folder;fontStyle=1;spacingTop=10;tabWidth=40;tabHeight=14;tabPosition=left;html=1;" vertex="1" parent="f_59wvBuFlrTC7KGXI5E-1">
          <mxGeometry x="240" y="60" width="140" height="100" as="geometry" />
        </mxCell>
        <mxCell id="f_59wvBuFlrTC7KGXI5E-4" value="书库管理模块" style="shape=folder;fontStyle=1;spacingTop=10;tabWidth=40;tabHeight=14;tabPosition=left;html=1;" vertex="1" parent="f_59wvBuFlrTC7KGXI5E-1">
          <mxGeometry x="240" y="400" width="140" height="100" as="geometry" />
        </mxCell>
        <mxCell id="f_59wvBuFlrTC7KGXI5E-14" style="edgeStyle=orthogonalEdgeStyle;rounded=0;orthogonalLoop=1;jettySize=auto;html=1;exitX=0;exitY=0;exitDx=140;exitDy=57;exitPerimeter=0;endArrow=none;endFill=0;" edge="1" parent="f_59wvBuFlrTC7KGXI5E-1" source="f_59wvBuFlrTC7KGXI5E-5" target="f_59wvBuFlrTC7KGXI5E-8">
          <mxGeometry relative="1" as="geometry" />
        </mxCell>
        <mxCell id="f_59wvBuFlrTC7KGXI5E-5" value="登录注册模块" style="shape=folder;fontStyle=1;spacingTop=10;tabWidth=40;tabHeight=14;tabPosition=left;html=1;" vertex="1" parent="f_59wvBuFlrTC7KGXI5E-1">
          <mxGeometry x="460" y="230" width="140" height="100" as="geometry" />
        </mxCell>
        <mxCell id="f_59wvBuFlrTC7KGXI5E-6" value="网站维护模块" style="shape=folder;fontStyle=1;spacingTop=10;tabWidth=40;tabHeight=14;tabPosition=left;html=1;" vertex="1" parent="f_59wvBuFlrTC7KGXI5E-1">
          <mxGeometry x="240" y="230" width="140" height="100" as="geometry" />
        </mxCell>
        <mxCell id="f_59wvBuFlrTC7KGXI5E-7" value="管理员类" style="shape=module;align=left;spacingLeft=20;align=center;verticalAlign=top;html=1;" vertex="1" parent="f_59wvBuFlrTC7KGXI5E-1">
          <mxGeometry x="680" y="240" width="100" height="30" as="geometry" />
        </mxCell>
        <mxCell id="f_59wvBuFlrTC7KGXI5E-8" value="教师类" style="shape=module;align=left;spacingLeft=20;align=center;verticalAlign=top;html=1;" vertex="1" parent="f_59wvBuFlrTC7KGXI5E-1">
          <mxGeometry x="680" y="270" width="100" height="30" as="geometry" />
        </mxCell>
        <mxCell id="f_59wvBuFlrTC7KGXI5E-9" value="学生类" style="shape=module;align=left;spacingLeft=20;align=center;verticalAlign=top;html=1;" vertex="1" parent="f_59wvBuFlrTC7KGXI5E-1">
          <mxGeometry x="680" y="300" width="100" height="30" as="geometry" />
        </mxCell>
        <mxCell id="f_59wvBuFlrTC7KGXI5E-10" value="用户登录界面控制类" style="shape=module;align=left;spacingLeft=20;align=center;verticalAlign=top;html=1;" vertex="1" parent="f_59wvBuFlrTC7KGXI5E-1">
          <mxGeometry x="680" y="330" width="100" height="30" as="geometry" />
        </mxCell>
        <mxCell id="f_59wvBuFlrTC7KGXI5E-11" value="用户登录界面类" style="shape=module;align=left;spacingLeft=20;align=center;verticalAlign=top;html=1;" vertex="1" parent="f_59wvBuFlrTC7KGXI5E-1">
          <mxGeometry x="680" y="360" width="100" height="30" as="geometry" />
        </mxCell>
        <mxCell id="f_59wvBuFlrTC7KGXI5E-12" value="用户类" style="shape=module;align=left;spacingLeft=20;align=center;verticalAlign=top;html=1;" vertex="1" parent="f_59wvBuFlrTC7KGXI5E-1">
          <mxGeometry x="680" y="390" width="100" height="30" as="geometry" />
        </mxCell>
      </root>
    </mxGraphModel>
  </diagram>
  <diagram id="ZnssDVQGX4LqKEMoGU1k" name="参与论坛时序图">
    <mxGraphModel dx="1058" dy="658" grid="1" gridSize="10" guides="1" tooltips="1" connect="1" arrows="1" fold="1" page="1" pageScale="1" pageWidth="827" pageHeight="1169" math="0" shadow="0">
      <root>
        <mxCell id="PTqxB6n7PZ9B36tsKr06-0" />
        <mxCell id="PTqxB6n7PZ9B36tsKr06-1" parent="PTqxB6n7PZ9B36tsKr06-0" />
        <mxCell id="7LGEzwHAXOQsrXjMmK6y-0" value=":User" style="shape=umlLifeline;perimeter=lifelinePerimeter;whiteSpace=wrap;html=1;container=1;collapsible=0;recursiveResize=0;outlineConnect=0;" vertex="1" parent="PTqxB6n7PZ9B36tsKr06-1">
          <mxGeometry x="40" y="110" width="100" height="300" as="geometry" />
        </mxCell>
        <mxCell id="7LGEzwHAXOQsrXjMmK6y-1" value=":UserInterface" style="shape=umlLifeline;perimeter=lifelinePerimeter;whiteSpace=wrap;html=1;container=1;collapsible=0;recursiveResize=0;outlineConnect=0;" vertex="1" parent="PTqxB6n7PZ9B36tsKr06-1">
          <mxGeometry x="210" y="110" width="100" height="300" as="geometry" />
        </mxCell>
        <mxCell id="JOQQhcDcRbGHiE1psYIl-6" value="" style="html=1;points=[];perimeter=orthogonalPerimeter;fontSize=15;" vertex="1" parent="7LGEzwHAXOQsrXjMmK6y-1">
          <mxGeometry x="45" y="80" width="10" height="130" as="geometry" />
        </mxCell>
        <mxCell id="7LGEzwHAXOQsrXjMmK6y-2" value="讨论控制类" style="shape=umlLifeline;perimeter=lifelinePerimeter;whiteSpace=wrap;html=1;container=1;collapsible=0;recursiveResize=0;outlineConnect=0;" vertex="1" parent="PTqxB6n7PZ9B36tsKr06-1">
          <mxGeometry x="414" y="110" width="100" height="300" as="geometry" />
        </mxCell>
        <mxCell id="JOQQhcDcRbGHiE1psYIl-12" style="edgeStyle=orthogonalEdgeStyle;rounded=0;orthogonalLoop=1;jettySize=auto;html=1;startArrow=none;startFill=0;endArrow=classic;endFill=1;fontSize=15;" edge="1" parent="7LGEzwHAXOQsrXjMmK6y-2" source="JOQQhcDcRbGHiE1psYIl-9" target="7LGEzwHAXOQsrXjMmK6y-2">
          <mxGeometry relative="1" as="geometry" />
        </mxCell>
        <mxCell id="JOQQhcDcRbGHiE1psYIl-9" value="" style="html=1;points=[];perimeter=orthogonalPerimeter;fontSize=15;" vertex="1" parent="7LGEzwHAXOQsrXjMmK6y-2">
          <mxGeometry x="45" y="90" width="10" height="100" as="geometry" />
        </mxCell>
        <mxCell id="7LGEzwHAXOQsrXjMmK6y-3" value="Discuz实体" style="shape=umlLifeline;perimeter=lifelinePerimeter;whiteSpace=wrap;html=1;container=1;collapsible=0;recursiveResize=0;outlineConnect=0;" vertex="1" parent="PTqxB6n7PZ9B36tsKr06-1">
          <mxGeometry x="620" y="110" width="100" height="300" as="geometry" />
        </mxCell>
        <mxCell id="JOQQhcDcRbGHiE1psYIl-13" value="" style="html=1;points=[];perimeter=orthogonalPerimeter;fontSize=15;" vertex="1" parent="7LGEzwHAXOQsrXjMmK6y-3">
          <mxGeometry x="45" y="90" width="10" height="80" as="geometry" />
        </mxCell>
        <mxCell id="JOQQhcDcRbGHiE1psYIl-14" value="&lt;span style=&quot;font-size: 11px&quot;&gt;分页查询&lt;/span&gt;" style="html=1;verticalAlign=bottom;endArrow=block;fontSize=15;" edge="1" target="7LGEzwHAXOQsrXjMmK6y-3" parent="7LGEzwHAXOQsrXjMmK6y-3">
          <mxGeometry relative="1" as="geometry">
            <mxPoint x="-150" y="110" as="sourcePoint" />
          </mxGeometry>
        </mxCell>
        <mxCell id="o3XMxdXtt3bwAbuQBhEZ-51" style="edgeStyle=orthogonalEdgeStyle;rounded=0;orthogonalLoop=1;jettySize=auto;html=1;endArrow=classic;endFill=1;" edge="1" parent="PTqxB6n7PZ9B36tsKr06-1" source="o3XMxdXtt3bwAbuQBhEZ-57" target="o3XMxdXtt3bwAbuQBhEZ-60">
          <mxGeometry relative="1" as="geometry">
            <Array as="points">
              <mxPoint x="220" y="940" />
              <mxPoint x="220" y="940" />
            </Array>
          </mxGeometry>
        </mxCell>
        <mxCell id="o3XMxdXtt3bwAbuQBhEZ-52" value="&lt;span style=&quot;color: rgba(0 , 0 , 0 , 0) ; font-family: monospace ; font-size: 0px ; background-color: rgb(248 , 249 , 250)&quot;&gt;%3CmxGraphModel%3E%3Croot%3E%3CmxCell%20id%3D%220%22%2F%3E%3CmxCell%20id%3D%221%22%20parent%3D%220%22%2F%3E%3CmxCell%20id%3D%222%22%20value%3D%22%E8%BF%9B%E5%85%A5%E5%B7%B2%E6%9C%89%E8%AE%A8%E8%AE%BA%E5%8C%BA%22%20style%3D%22edgeLabel%3Bhtml%3D1%3Balign%3Dcenter%3BverticalAlign%3Dmiddle%3Bresizable%3D0%3Bpoints%3D%5B%5D%3B%22%20vertex%3D%221%22%20connectable%3D%220%22%20parent%3D%221%22%3E%3CmxGeometry%20x%3D%22766.2958823529411%22%20y%3D%22510%22%20as%3D%22geometry%22%2F%3E%3C%2FmxCell%3E%3C%2Froot%3E%3C%2FmxGraphModel%3E&lt;/span&gt;" style="edgeLabel;html=1;align=center;verticalAlign=middle;resizable=0;points=[];" vertex="1" connectable="0" parent="o3XMxdXtt3bwAbuQBhEZ-51">
          <mxGeometry x="0.2369" y="1" relative="1" as="geometry">
            <mxPoint x="-24.03" as="offset" />
          </mxGeometry>
        </mxCell>
        <mxCell id="o3XMxdXtt3bwAbuQBhEZ-53" value="新建讨论区" style="edgeLabel;html=1;align=center;verticalAlign=middle;resizable=0;points=[];" vertex="1" connectable="0" parent="o3XMxdXtt3bwAbuQBhEZ-51">
          <mxGeometry x="-0.1446" y="-1" relative="1" as="geometry">
            <mxPoint as="offset" />
          </mxGeometry>
        </mxCell>
        <mxCell id="o3XMxdXtt3bwAbuQBhEZ-57" value=":User" style="shape=umlLifeline;perimeter=lifelinePerimeter;whiteSpace=wrap;html=1;container=1;collapsible=0;recursiveResize=0;outlineConnect=0;" vertex="1" parent="PTqxB6n7PZ9B36tsKr06-1">
          <mxGeometry x="50" y="850" width="100" height="300" as="geometry" />
        </mxCell>
        <mxCell id="o3XMxdXtt3bwAbuQBhEZ-58" style="edgeStyle=orthogonalEdgeStyle;rounded=0;orthogonalLoop=1;jettySize=auto;html=1;endArrow=classic;endFill=1;" edge="1" parent="PTqxB6n7PZ9B36tsKr06-1" source="o3XMxdXtt3bwAbuQBhEZ-60" target="o3XMxdXtt3bwAbuQBhEZ-65">
          <mxGeometry relative="1" as="geometry">
            <Array as="points">
              <mxPoint x="450" y="970" />
              <mxPoint x="450" y="970" />
            </Array>
          </mxGeometry>
        </mxCell>
        <mxCell id="o3XMxdXtt3bwAbuQBhEZ-59" value="发送请求" style="edgeLabel;html=1;align=center;verticalAlign=middle;resizable=0;points=[];" vertex="1" connectable="0" parent="o3XMxdXtt3bwAbuQBhEZ-58">
          <mxGeometry x="0.2383" y="1" relative="1" as="geometry">
            <mxPoint x="1" as="offset" />
          </mxGeometry>
        </mxCell>
        <mxCell id="o3XMxdXtt3bwAbuQBhEZ-72" style="edgeStyle=orthogonalEdgeStyle;rounded=0;orthogonalLoop=1;jettySize=auto;html=1;startArrow=none;startFill=0;endArrow=classic;endFill=1;fontSize=15;" edge="1" parent="PTqxB6n7PZ9B36tsKr06-1" source="o3XMxdXtt3bwAbuQBhEZ-60" target="o3XMxdXtt3bwAbuQBhEZ-57">
          <mxGeometry relative="1" as="geometry">
            <Array as="points">
              <mxPoint x="230" y="1080" />
              <mxPoint x="230" y="1080" />
            </Array>
          </mxGeometry>
        </mxCell>
        <mxCell id="o3XMxdXtt3bwAbuQBhEZ-60" value=":UserInterface" style="shape=umlLifeline;perimeter=lifelinePerimeter;whiteSpace=wrap;html=1;container=1;collapsible=0;recursiveResize=0;outlineConnect=0;" vertex="1" parent="PTqxB6n7PZ9B36tsKr06-1">
          <mxGeometry x="220" y="850" width="100" height="300" as="geometry" />
        </mxCell>
        <mxCell id="o3XMxdXtt3bwAbuQBhEZ-61" style="edgeStyle=orthogonalEdgeStyle;rounded=0;orthogonalLoop=1;jettySize=auto;html=1;endArrow=classic;endFill=1;" edge="1" parent="PTqxB6n7PZ9B36tsKr06-1" source="o3XMxdXtt3bwAbuQBhEZ-65" target="o3XMxdXtt3bwAbuQBhEZ-68">
          <mxGeometry relative="1" as="geometry">
            <Array as="points">
              <mxPoint x="650" y="990" />
              <mxPoint x="650" y="990" />
            </Array>
          </mxGeometry>
        </mxCell>
        <mxCell id="o3XMxdXtt3bwAbuQBhEZ-62" value="插入数据库" style="edgeLabel;html=1;align=center;verticalAlign=middle;resizable=0;points=[];" vertex="1" connectable="0" parent="o3XMxdXtt3bwAbuQBhEZ-61">
          <mxGeometry x="0.2103" relative="1" as="geometry">
            <mxPoint as="offset" />
          </mxGeometry>
        </mxCell>
        <mxCell id="o3XMxdXtt3bwAbuQBhEZ-63" style="edgeStyle=orthogonalEdgeStyle;rounded=0;orthogonalLoop=1;jettySize=auto;html=1;endArrow=classic;endFill=1;" edge="1" parent="PTqxB6n7PZ9B36tsKr06-1" source="o3XMxdXtt3bwAbuQBhEZ-65" target="o3XMxdXtt3bwAbuQBhEZ-60">
          <mxGeometry relative="1" as="geometry">
            <Array as="points">
              <mxPoint x="450" y="1040" />
              <mxPoint x="450" y="1040" />
            </Array>
          </mxGeometry>
        </mxCell>
        <mxCell id="o3XMxdXtt3bwAbuQBhEZ-64" value="返回结果" style="edgeLabel;html=1;align=center;verticalAlign=middle;resizable=0;points=[];" vertex="1" connectable="0" parent="o3XMxdXtt3bwAbuQBhEZ-63">
          <mxGeometry x="-0.2038" y="4" relative="1" as="geometry">
            <mxPoint as="offset" />
          </mxGeometry>
        </mxCell>
        <mxCell id="o3XMxdXtt3bwAbuQBhEZ-65" value="讨论控制类" style="shape=umlLifeline;perimeter=lifelinePerimeter;whiteSpace=wrap;html=1;container=1;collapsible=0;recursiveResize=0;outlineConnect=0;" vertex="1" parent="PTqxB6n7PZ9B36tsKr06-1">
          <mxGeometry x="424" y="850" width="100" height="300" as="geometry" />
        </mxCell>
        <mxCell id="o3XMxdXtt3bwAbuQBhEZ-66" style="edgeStyle=orthogonalEdgeStyle;rounded=0;orthogonalLoop=1;jettySize=auto;html=1;endArrow=classic;endFill=1;startArrow=none;startFill=0;" edge="1" parent="PTqxB6n7PZ9B36tsKr06-1" source="o3XMxdXtt3bwAbuQBhEZ-68" target="o3XMxdXtt3bwAbuQBhEZ-65">
          <mxGeometry relative="1" as="geometry">
            <Array as="points">
              <mxPoint x="640" y="1020" />
              <mxPoint x="640" y="1020" />
            </Array>
          </mxGeometry>
        </mxCell>
        <mxCell id="o3XMxdXtt3bwAbuQBhEZ-67" value="返回结果" style="edgeLabel;html=1;align=center;verticalAlign=middle;resizable=0;points=[];" vertex="1" connectable="0" parent="o3XMxdXtt3bwAbuQBhEZ-66">
          <mxGeometry x="0.3603" relative="1" as="geometry">
            <mxPoint as="offset" />
          </mxGeometry>
        </mxCell>
        <mxCell id="o3XMxdXtt3bwAbuQBhEZ-68" value="Discuz实体" style="shape=umlLifeline;perimeter=lifelinePerimeter;whiteSpace=wrap;html=1;container=1;collapsible=0;recursiveResize=0;outlineConnect=0;" vertex="1" parent="PTqxB6n7PZ9B36tsKr06-1">
          <mxGeometry x="630" y="850" width="100" height="300" as="geometry" />
        </mxCell>
        <mxCell id="o3XMxdXtt3bwAbuQBhEZ-69" value="点击讨论区" style="edgeLabel;html=1;align=center;verticalAlign=middle;resizable=0;points=[];fontSize=16;" vertex="1" connectable="0" parent="PTqxB6n7PZ9B36tsKr06-1">
          <mxGeometry x="89.99941176470566" y="69.99999999999989" as="geometry" />
        </mxCell>
        <mxCell id="o3XMxdXtt3bwAbuQBhEZ-70" value="进入已有讨论区" style="edgeLabel;html=1;align=center;verticalAlign=middle;resizable=0;points=[];fontSize=15;" vertex="1" connectable="0" parent="PTqxB6n7PZ9B36tsKr06-1">
          <mxGeometry x="90.00470588235292" y="449.9999999999998" as="geometry" />
        </mxCell>
        <mxCell id="o3XMxdXtt3bwAbuQBhEZ-71" style="edgeStyle=orthogonalEdgeStyle;rounded=0;orthogonalLoop=1;jettySize=auto;html=1;endArrow=classic;endFill=1;fontSize=15;" edge="1" parent="PTqxB6n7PZ9B36tsKr06-1">
          <mxGeometry relative="1" as="geometry">
            <mxPoint x="269.32352941176464" y="910" as="sourcePoint" />
            <mxPoint x="269.32352941176464" y="950" as="targetPoint" />
            <Array as="points">
              <mxPoint x="350" y="910" />
              <mxPoint x="310" y="950" />
            </Array>
          </mxGeometry>
        </mxCell>
        <mxCell id="o3XMxdXtt3bwAbuQBhEZ-108" value="&lt;font style=&quot;font-size: 11px&quot;&gt;未登录返回&lt;/font&gt;" style="edgeLabel;html=1;align=center;verticalAlign=middle;resizable=0;points=[];fontSize=15;" vertex="1" connectable="0" parent="o3XMxdXtt3bwAbuQBhEZ-71">
          <mxGeometry x="-0.6701" y="-3" relative="1" as="geometry">
            <mxPoint as="offset" />
          </mxGeometry>
        </mxCell>
        <mxCell id="o3XMxdXtt3bwAbuQBhEZ-73" value="展示结果" style="edgeLabel;html=1;align=center;verticalAlign=middle;resizable=0;points=[];" vertex="1" connectable="0" parent="PTqxB6n7PZ9B36tsKr06-1">
          <mxGeometry x="170.00470588235294" y="1069.9999999999998" as="geometry" />
        </mxCell>
        <mxCell id="o3XMxdXtt3bwAbuQBhEZ-92" style="edgeStyle=orthogonalEdgeStyle;rounded=0;orthogonalLoop=1;jettySize=auto;html=1;endArrow=classic;endFill=1;" edge="1" parent="PTqxB6n7PZ9B36tsKr06-1" source="o3XMxdXtt3bwAbuQBhEZ-94" target="o3XMxdXtt3bwAbuQBhEZ-98">
          <mxGeometry relative="1" as="geometry">
            <Array as="points">
              <mxPoint x="160" y="550" />
              <mxPoint x="160" y="550" />
            </Array>
          </mxGeometry>
        </mxCell>
        <mxCell id="o3XMxdXtt3bwAbuQBhEZ-93" value="点击某个讨论" style="edgeLabel;html=1;align=center;verticalAlign=middle;resizable=0;points=[];" vertex="1" connectable="0" parent="o3XMxdXtt3bwAbuQBhEZ-92">
          <mxGeometry x="0.2369" y="1" relative="1" as="geometry">
            <mxPoint x="-24.03" as="offset" />
          </mxGeometry>
        </mxCell>
        <mxCell id="o3XMxdXtt3bwAbuQBhEZ-94" value=":User" style="shape=umlLifeline;perimeter=lifelinePerimeter;whiteSpace=wrap;html=1;container=1;collapsible=0;recursiveResize=0;outlineConnect=0;" vertex="1" parent="PTqxB6n7PZ9B36tsKr06-1">
          <mxGeometry x="50" y="480" width="100" height="300" as="geometry" />
        </mxCell>
        <mxCell id="o3XMxdXtt3bwAbuQBhEZ-95" style="edgeStyle=orthogonalEdgeStyle;rounded=0;orthogonalLoop=1;jettySize=auto;html=1;endArrow=classic;endFill=1;" edge="1" parent="PTqxB6n7PZ9B36tsKr06-1" source="o3XMxdXtt3bwAbuQBhEZ-98" target="o3XMxdXtt3bwAbuQBhEZ-103">
          <mxGeometry relative="1" as="geometry">
            <Array as="points">
              <mxPoint x="380" y="570" />
              <mxPoint x="380" y="570" />
            </Array>
          </mxGeometry>
        </mxCell>
        <mxCell id="o3XMxdXtt3bwAbuQBhEZ-96" value="发送id" style="edgeLabel;html=1;align=center;verticalAlign=middle;resizable=0;points=[];" vertex="1" connectable="0" parent="o3XMxdXtt3bwAbuQBhEZ-95">
          <mxGeometry x="0.2383" y="1" relative="1" as="geometry">
            <mxPoint x="1" as="offset" />
          </mxGeometry>
        </mxCell>
        <mxCell id="o3XMxdXtt3bwAbuQBhEZ-97" style="edgeStyle=orthogonalEdgeStyle;rounded=0;orthogonalLoop=1;jettySize=auto;html=1;startArrow=none;startFill=0;endArrow=classic;endFill=1;fontSize=15;" edge="1" parent="PTqxB6n7PZ9B36tsKr06-1" source="o3XMxdXtt3bwAbuQBhEZ-98" target="o3XMxdXtt3bwAbuQBhEZ-94">
          <mxGeometry relative="1" as="geometry">
            <Array as="points">
              <mxPoint x="160" y="650" />
              <mxPoint x="160" y="650" />
            </Array>
          </mxGeometry>
        </mxCell>
        <mxCell id="o3XMxdXtt3bwAbuQBhEZ-98" value=":UserInterface" style="shape=umlLifeline;perimeter=lifelinePerimeter;whiteSpace=wrap;html=1;container=1;collapsible=0;recursiveResize=0;outlineConnect=0;" vertex="1" parent="PTqxB6n7PZ9B36tsKr06-1">
          <mxGeometry x="220" y="480" width="100" height="300" as="geometry" />
        </mxCell>
        <mxCell id="o3XMxdXtt3bwAbuQBhEZ-99" style="edgeStyle=orthogonalEdgeStyle;rounded=0;orthogonalLoop=1;jettySize=auto;html=1;endArrow=classic;endFill=1;" edge="1" parent="PTqxB6n7PZ9B36tsKr06-1" source="o3XMxdXtt3bwAbuQBhEZ-103" target="o3XMxdXtt3bwAbuQBhEZ-106">
          <mxGeometry relative="1" as="geometry">
            <Array as="points">
              <mxPoint x="540" y="580" />
              <mxPoint x="540" y="580" />
            </Array>
          </mxGeometry>
        </mxCell>
        <mxCell id="o3XMxdXtt3bwAbuQBhEZ-100" value="按id查询" style="edgeLabel;html=1;align=center;verticalAlign=middle;resizable=0;points=[];" vertex="1" connectable="0" parent="o3XMxdXtt3bwAbuQBhEZ-99">
          <mxGeometry x="0.2103" relative="1" as="geometry">
            <mxPoint as="offset" />
          </mxGeometry>
        </mxCell>
        <mxCell id="o3XMxdXtt3bwAbuQBhEZ-101" style="edgeStyle=orthogonalEdgeStyle;rounded=0;orthogonalLoop=1;jettySize=auto;html=1;endArrow=classic;endFill=1;" edge="1" parent="PTqxB6n7PZ9B36tsKr06-1" source="o3XMxdXtt3bwAbuQBhEZ-103" target="o3XMxdXtt3bwAbuQBhEZ-98">
          <mxGeometry relative="1" as="geometry" />
        </mxCell>
        <mxCell id="o3XMxdXtt3bwAbuQBhEZ-102" value="返回结果" style="edgeLabel;html=1;align=center;verticalAlign=middle;resizable=0;points=[];" vertex="1" connectable="0" parent="o3XMxdXtt3bwAbuQBhEZ-101">
          <mxGeometry x="-0.2038" y="4" relative="1" as="geometry">
            <mxPoint as="offset" />
          </mxGeometry>
        </mxCell>
        <mxCell id="o3XMxdXtt3bwAbuQBhEZ-103" value="讨论控制类" style="shape=umlLifeline;perimeter=lifelinePerimeter;whiteSpace=wrap;html=1;container=1;collapsible=0;recursiveResize=0;outlineConnect=0;" vertex="1" parent="PTqxB6n7PZ9B36tsKr06-1">
          <mxGeometry x="424" y="480" width="100" height="300" as="geometry" />
        </mxCell>
        <mxCell id="o3XMxdXtt3bwAbuQBhEZ-104" style="edgeStyle=orthogonalEdgeStyle;rounded=0;orthogonalLoop=1;jettySize=auto;html=1;endArrow=classic;endFill=1;" edge="1" parent="PTqxB6n7PZ9B36tsKr06-1" source="o3XMxdXtt3bwAbuQBhEZ-106" target="o3XMxdXtt3bwAbuQBhEZ-103">
          <mxGeometry relative="1" as="geometry">
            <Array as="points">
              <mxPoint x="600" y="610" />
              <mxPoint x="600" y="610" />
            </Array>
          </mxGeometry>
        </mxCell>
        <mxCell id="o3XMxdXtt3bwAbuQBhEZ-105" value="返回结果" style="edgeLabel;html=1;align=center;verticalAlign=middle;resizable=0;points=[];" vertex="1" connectable="0" parent="o3XMxdXtt3bwAbuQBhEZ-104">
          <mxGeometry x="0.3603" relative="1" as="geometry">
            <mxPoint as="offset" />
          </mxGeometry>
        </mxCell>
        <mxCell id="o3XMxdXtt3bwAbuQBhEZ-106" value="Discuz实体" style="shape=umlLifeline;perimeter=lifelinePerimeter;whiteSpace=wrap;html=1;container=1;collapsible=0;recursiveResize=0;outlineConnect=0;" vertex="1" parent="PTqxB6n7PZ9B36tsKr06-1">
          <mxGeometry x="630" y="480" width="100" height="300" as="geometry" />
        </mxCell>
        <mxCell id="o3XMxdXtt3bwAbuQBhEZ-107" value="展示结果" style="edgeLabel;html=1;align=center;verticalAlign=middle;resizable=0;points=[];" vertex="1" connectable="0" parent="PTqxB6n7PZ9B36tsKr06-1">
          <mxGeometry x="170.00470588235294" y="649.9999999999998" as="geometry" />
        </mxCell>
        <mxCell id="JOQQhcDcRbGHiE1psYIl-7" value="&lt;span style=&quot;font-size: 11px&quot;&gt;点击讨论区&lt;/span&gt;" style="html=1;verticalAlign=bottom;endArrow=block;entryX=0;entryY=0;fontSize=15;" edge="1" target="JOQQhcDcRbGHiE1psYIl-6" parent="PTqxB6n7PZ9B36tsKr06-1" source="7LGEzwHAXOQsrXjMmK6y-0">
          <mxGeometry x="-0.0261" relative="1" as="geometry">
            <mxPoint x="185" y="190" as="sourcePoint" />
            <mxPoint as="offset" />
          </mxGeometry>
        </mxCell>
        <mxCell id="JOQQhcDcRbGHiE1psYIl-8" value="&lt;span style=&quot;font-size: 11px&quot;&gt;展示结果&lt;/span&gt;" style="html=1;verticalAlign=bottom;endArrow=open;dashed=1;endSize=8;exitX=0;exitY=0.95;fontSize=15;" edge="1" source="JOQQhcDcRbGHiE1psYIl-6" parent="PTqxB6n7PZ9B36tsKr06-1" target="7LGEzwHAXOQsrXjMmK6y-0">
          <mxGeometry relative="1" as="geometry">
            <mxPoint x="185" y="266" as="targetPoint" />
          </mxGeometry>
        </mxCell>
        <mxCell id="JOQQhcDcRbGHiE1psYIl-10" value="&lt;span style=&quot;font-size: 11px&quot;&gt;发送请求&lt;/span&gt;" style="html=1;verticalAlign=bottom;endArrow=block;entryX=-0.171;entryY=0.109;fontSize=15;entryDx=0;entryDy=0;entryPerimeter=0;" edge="1" target="JOQQhcDcRbGHiE1psYIl-9" parent="PTqxB6n7PZ9B36tsKr06-1">
          <mxGeometry relative="1" as="geometry">
            <mxPoint x="261" y="211" as="sourcePoint" />
          </mxGeometry>
        </mxCell>
        <mxCell id="JOQQhcDcRbGHiE1psYIl-11" value="&lt;span style=&quot;font-size: 11px&quot;&gt;返回结果&lt;/span&gt;" style="html=1;verticalAlign=bottom;endArrow=open;dashed=1;endSize=8;exitX=0;exitY=0.95;fontSize=15;" edge="1" source="JOQQhcDcRbGHiE1psYIl-9" parent="PTqxB6n7PZ9B36tsKr06-1" target="7LGEzwHAXOQsrXjMmK6y-1">
          <mxGeometry relative="1" as="geometry">
            <mxPoint x="389" y="276" as="targetPoint" />
            <Array as="points">
              <mxPoint x="360" y="295" />
            </Array>
          </mxGeometry>
        </mxCell>
        <mxCell id="JOQQhcDcRbGHiE1psYIl-15" value="&lt;span style=&quot;font-size: 11px&quot;&gt;返回分页结果&lt;/span&gt;" style="html=1;verticalAlign=bottom;endArrow=open;dashed=1;endSize=8;fontSize=15;" edge="1" parent="PTqxB6n7PZ9B36tsKr06-1" target="7LGEzwHAXOQsrXjMmK6y-2">
          <mxGeometry relative="1" as="geometry">
            <mxPoint x="595" y="276" as="targetPoint" />
            <mxPoint x="665" y="270" as="sourcePoint" />
          </mxGeometry>
        </mxCell>
      </root>
    </mxGraphModel>
  </diagram>
</mxfile>
